# xmcd CD database file
#
# Track frame offsets:
#	150
#	20007
#	40512
#	60525
#
# Disc length: 1108 seconds
#
# Revision: 0
# Processed by: cddbd v1.5PL3 Copyright (c) Steve Scherf et al.
# Submitted via: CDex 1.50beta9
#
DISCID=28045204
DTITLE=爆風スランプ - 旅人よ〜Ｔｈｅ　Ｌｏｎｇｅｓｔ　Ｊｏｕｒｎｅｙ
DYEAR=1996
DGENRE=J-POP
TTITLE0=旅人よ〜Ｔｈｅ　Ｌｏｎｇｅｓｔ　Ｊｏｕｒｎｅｙ
TTITLE1=健康優良児
TTITLE2=旅人よ〜Ｔｈｅ　Ｌｏｎｇｅｓｔ　Ｊｏｕｒｎｅｙ　カラオケ
TTITLE3=旅人よ（仮）
EXTD=YEAR: 1996
EXTT0=
EXTT1=
EXTT2=
EXTT3=
PLAYORDER=
